<?xml version="1.0" encoding="utf-8"?>
<svg version="1.1" id="Layer_1" xmlns="http://www.w3.org/2000/svg" xmlns:xlink="http://www.w3.org/1999/xlink" x="0px" y="0px"
	 viewBox="0 0 4000 4000" enable-background="new 0 0 4000 4000" xml:space="preserve">
<g>
	<g id="layer1_2_" transform="translate(-210.63 -364.11)">
		<path id="path2396_2_" d="M2360.24,1714.113l-115.465,121.317l121.355,111.552l117.403-119.379L2360.24,1714.113z"/>
		<path id="path3168_2_" d="M2123.458,1780.641c0,0,129.144,407.036,502.934,68.504c1.976,1.938,101.749,133.057,103.725,133.057
			C2585.281,2144.629,2143.025,2232.701,2123.458,1780.641z"/>
		<path id="path3170_2_" d="M1778.998,2248.355l-90.009-162.427c460.545-309.2,709.726,136.97,377.704,338.57l107.639,43.048
			c128.523-5.27,110.041-158.087,246.585-281.806c51.533-61.995,416.18-143.518,424.666,377.704
			c-21.311,472.974-577.987,440.32-485.344,0c32.605,169.931,158.6,176.773,257.41,131.55
			c149.579-69.906,146.955-186.791,147.556-234.179c1.474-116.323-54.616-284.587-199.491-181.152
			c-74.336,53.073-77.61,110.894-91.985,138.946c-14.336,28.053-59.67,137.474-254.412,103.726
			c181.684,375.651-119.185,475.385-148.71,481.429c-76.293,38.398-540.828-3.138-491.233-600.809
			c39.793,313.113,197.222,480.383,448.185,416.839c189.976-48.085,189.162-390.103-103.725-277.893l-66.528-207.45
			c-2.829-8.796,94.232,24.682,193.734-1.937c80.787-21.621,147.548-179.476-64.591-180.057
			C1893.495,2152.224,1848.161,2216.389,1778.998,2248.355z"/>
	</g>
	<path d="M3757.96,1842c-162.545-201.695-212.523-327.025-403.84-346.28c23.88-31.96,53.24-59.12,81.96-86.64
		c-44.36,0.16-89.16,0.76-132.76-8.48c97.573-124.213,80.52-217.9,70.76-316.24c-30.363-296.36-46.265-284.643,44.72-497.6
		c-170.317,69.415-191.823,75.115-382.68,48.92c-189.768-25.458-301.433-55.768-436.2,52.6c-5.88-39.32-4-79.12-3.48-118.72
		c-31.76,30.96-62.28,64.04-100.32,87.6c-10.48-100.928-50.075-172.24-128.24-236.88C2184.988,268.767,2153.108,253.23,2106,197.96
		C2044.25,126.588,2020.777,39.093,2003.36,0h-1.6c-23.88,64.32-50.96,129.2-94.84,182.84
		c-79.455,98.263-285.755,208.7-354.56,309.56c-33.04,46.4-50.4,102.24-56.76,158.44c-32.08-23.52-58.52-53.36-86.28-81.52
		c-0.12,44.52,0.48,89.4-8.76,133.2c-120.655-100.453-231.365-79.685-312.36-71.8c-300.535,30.727-284.805,46.673-501.16-44.36
		c49.207,123.208,78.23,176.987,54.92,337.56c-36.465,253.253-58.61,346.755,46.16,481.48c-39.24,5.64-78.96,3.8-118.44,3.36
		c31.24,31.56,63.72,62.6,87.72,100.32c-121.81,10.923-188.908,67.315-254.68,149.56C204.938,1903.38,206.038,1925.265,0,2001.48
		v1.04c122.152,49.95,185.06,76.413,269.28,188.36c155.867,205.955,178.533,229.193,212.96,254.52
		c48.52,37.44,108.44,57.92,169.08,63.96c-24.12,31.72-53.36,58.88-81.8,86.6c44.44-0.12,89.32-0.6,133,8.76
		c-100.868,120.413-79.655,232.528-71.4,315.88c30.075,291.487,46.602,286.532-44.8,497.56
		c202.977-83.542,202.755-71.715,489.16-35.36c95.25,11.06,202.9,35.938,329.92-66.08c5.52,39.44,4.2,79.36,3.28,119.08
		c31.2-31.72,62.64-63.92,100.44-87.92c9.568,95.785,47.188,169.618,124.76,234c276.323,228.385,279.772,199.02,366.36,418.12h3.84
		c39.803-92.362,63.147-168.285,174.12-254.12c203.183-160.327,312.37-207.598,331.24-392c31.64,24.2,59.08,53.16,86.56,81.88
		c0.08-44.48-0.8-89.4,8.8-133.08c128.993,107.257,243.542,77.173,342.4,68.64c256.383-23.21,252.025-48.117,471.24,47.64
		c-35.355-88.55-75.895-163.218-60.04-299c31.605-264.507,75.57-375.04-41.64-520.04c39.32-5.88,79.12-4.04,118.72-3.64
		c-31.2-31.52-63.64-62.4-87.6-100.04c87.405-9.965,160.327-39.845,225.4-115.08c222.005-258.313,185.92-282.765,426.72-376.08v-4
		C3928.995,1969.032,3842.115,1945.52,3757.96,1842z M3346.76,1445.12c-70.222,78.548-78.68,141.008-129.24,311.12
		c-15.093,48.085-31.73,121.685-124.4,167c-35.36-39.04-64.52-83.12-98.2-123.52c4.04-19.28,11.04-37.76,16.08-56.76
		c35.637-125.018,42.84-127.925,126.56-210.28c-144.17,0.152-137.093-7.235-296.44-97.92c-4.36-52.72-14.76-105.08-13.64-158.12
		C3019.652,1212.203,3127.938,1427.708,3346.76,1445.12z M2804.16,2803.2c-76.845-24.175-126.155-10.91-211.52-2.44
		c29.32-54.44,29.52-121.16,5.64-177.6c10.32-10.44,20.52-21,30.8-31.52c57.36,23.12,124.4,20.52,178.4-10.44
		C2798.492,2666.762,2779.998,2716.6,2804.16,2803.2z M1984.8,2862.52c14.68-0.24,29.32-0.04,44-0.64
		c27.495,57.36,65.473,98.788,133.6,119c-66.04,53.677-117.07,78.025-159.16,154.64c-38.885-75.718-92.82-104.708-147.52-151.44
		C1914.76,2966.32,1962.28,2919.4,1984.8,2862.52z M1569.68,3049.64c-6.705-83.47-42.473-126.667-89.8-217.56
		c-25.655-49.7-60.358-94.033-35.72-175.88c138.8,119.84,317.32,192.48,500.28,204.24c-11.64,21.92-26.2,42.8-45.72,58.44
		C1828.502,2977.005,1668.712,2967.46,1569.68,3049.64z M2070,2859.84c182.8-13.88,360.4-88.36,498-209.64
		c49.96,145.335-116.46,239.105-131.12,398.12c-85.46-62.597-110.155-54.57-208.72-86.88
		C2169.865,2941.988,2112.617,2938.105,2070,2859.84z M2560.48,2576.52c-216.095,211.14-530.867,278.855-810.2,185.96
		c-317.545-104.788-542.055-403.36-547.96-742.52c-11.085-420.262,310.633-771.355,711.84-813.04
		c168.12-18.76,342.12,16.64,488.36,102.04C2863.085,1573.528,2940.738,2208.482,2560.48,2576.52z M1201.12,1202.12
		c84.935,24.962,131.588,9.488,211.4,2.4c-42.365,81.792-15.287,148.58-5.76,178.52c-13.2,11.32-24.52,24.48-36.6,36.92
		c-64.16-28.252-109.147-29.182-172.44,3.84C1206.48,1350.48,1224.72,1274.64,1201.12,1202.12z M1216.52,1456.72
		c57.458-29.252,87.075-21.75,127.32-7c-116.52,138.32-187.72,314.16-199.12,494.72c-138.017-68.172-84.032-244.337-189-374.88
		C1039.223,1563.635,1078.31,1528.513,1216.52,1456.72z M1142.76,1984.96c-0.16,14.56-0.04,29.16,0.48,43.76
		c-59.73,28.68-97.432,65.775-119.04,133.52c-43.92-54.92-81.8-118.76-145.32-153.56c-3.12-1.04-11.44-7.04-3.48-8.76
		c62.92-31.64,102.88-91.52,145.56-145C1038.36,1914.48,1085.72,1962.12,1142.76,1984.96z M1083.64,2123.92
		c15.28-23.4,37.92-40.92,62.16-54.24c12.28,183.24,88.84,360.04,208.64,498.68c-40.48,13.16-85.92,13.2-124.64-5.68
		c-129.493-66.205-182.008-117.83-273.56-125.92c21.12-25.52,38.68-54.12,50.04-85.32
		C1031.645,2282.585,1054.943,2165.165,1083.64,2123.92z M1204.52,2592.44c54.08,29.56,121.04,29.76,177.16,5.68
		c10.84,9.88,20.68,20.84,31.76,30.52c-22.92,57.56-20.28,124.44,10.28,178.76c-86.458-9.633-139.435-26.963-221.68-3.4
		C1226.748,2725.225,1212.1,2673.777,1204.52,2592.44z M2029.72,1143.16c-17.84-0.6-35.68-0.72-53.52,0.04
		c-30.215-67.137-74.357-99.692-133.36-119.04c77.303-60.688,119.66-83.135,159.04-154.4c35.927,67.692,73.39,91.517,148.24,151.28
		C2084.1,1041.557,2054.407,1078.45,2029.72,1143.16z M2304.12,1017.68c47.2-12,93.8-30.32,131.36-62.12
		c13.22,159.138,169.68,258.327,125.56,392.64c-137.4-116.48-311.52-190.4-491.6-202.56
		C2103.665,1064.26,2133.653,1061.37,2304.12,1017.68z M1935.48,1145.68c-183,12.6-360.44,88.32-498.32,208.96
		c-32.677-95.975,16.805-141.515,96.8-288.28c18.92-33.96,29.8-71.72,35.04-110.12
		C1680.965,1056.67,1864.11,1014.938,1935.48,1145.68z M2800.72,1412.56c-54.52-29.32-121.24-29.68-177.72-5.52
		c-10.12-10.64-20.76-20.76-31.36-30.92c23.12-57.4,20.6-124.6-10.52-178.56c92.177,11.13,144.08,26.517,222.08,3.48
		C2778.435,1279.933,2793.015,1331.107,2800.72,1412.56z M3048.84,1568.4c-56.15,68.073-59.17,120.282-88.24,211.36
		c-21.56,65.672-23.825,111.31-100.8,155.52c-13.6-182.92-88.28-360.72-209.72-498.24c42.28-13.96,89.84-13.32,129.76,7.52
		C2919.1,1518.483,2962.525,1560.708,3048.84,1568.4z M2656.44,2560.8c119.52-138.88,192.44-317.12,204-500.04
		c136.583,66.395,86.888,251.64,189.12,374.56c-89.002,8.877-126.475,43.147-213.84,88.16
		C2785.775,2548.645,2738.928,2586.745,2656.44,2560.8z M2862.32,2020c0.4-14.6,0.08-29.2-0.28-43.8
		c59.685-27.635,98.485-67.813,118.76-132.92c53.84,63.675,72.998,112.388,154.44,158.6c-70.672,37.142-97.248,81.682-151.04,147.88
		C2966.44,2090.36,2919.16,2043.12,2862.32,2020z M2768.48,668.56c47.56-8,95.52,0.56,142.8,6.16
		c222.895,27.915,281.818,45.903,409.68,8.08c-41.175,128.07-23.545,189.872,2.72,441.2c9.28,89.21,5.145,173.875-77.92,258.12
		c-162.685-72.807-255.515-190.14-412.92-146.48c8.16-35.28,24.24-67.92,38.32-101.08c-37.04,14.44-73.28,32.16-113,38.04
		c16.92-58.84,11.84-123.48-15.28-178.44c-64.147-128.13-104.885-184.707-128-246.72C2657.24,707.52,2710.2,676.8,2768.48,668.56z
		 M2558.8,657.84c13.99,219.185,222.515,331.9,159.12,517.36c-53.08-2.2-105.32-12.84-158.08-18.24
		c-27.16-54.56-64.6-104.96-80.16-164.64c-10.36-40.56-7.32-82.72-6.84-124.08c-102.835,97.852-84.75,87.318-279.12,140.08
		c-39.92-34.48-84.08-64.12-121.08-101.96c24.64-50.84,68.48-92.64,122.4-110.76c106.508-34.772,219.668-55.15,280.4-84.12
		C2505.72,697.96,2533.4,679.12,2558.8,657.84z M1626.8,487.16c77.133-75.188,252.945-184.217,322.12-270.36
		c20.44-24.56,37.4-51.76,52.72-79.76c62.535,123.002,129.987,159.652,281.76,283.8c70.44,58.755,154.413,111.027,160.12,263.4
		c-43.72,17.52-90.2,26.32-135.32,39.4c-108.837,31.667-198.103,40.435-260.56,149.12c-20-29.96-30.76-64.6-44.48-97.56
		c-16.2,36.28-30,74-53.08,106.8c-77.292-143.138-234.407-128.67-401.56-199.2C1548.56,610.92,1575.16,538.04,1626.8,487.16z
		 M1445.04,658.6c26.28,22.56,54.76,42.96,86.4,57.36c54.925,26.47,102.443,32.167,264.96,84.32
		c55.6,17.56,101.72,59.36,126.96,111.64c-38.96,35.72-83.48,64.64-124,98.52c-15.4-3.52-30.28-9-45.52-13.12
		c-128.153-38.617-126.16-32.675-220.88-129.68c-1.3,145.022-5.527,133.99-98.16,296.4c-52.68,4.32-105,14.76-158,13.64
		c-37.807-111.795,14.115-174.982,66.44-269.88C1388.21,825.735,1435.755,769.56,1445.04,658.6z M682.64,684.24
		c117.21,37.495,190.79,24.117,288.92,13.08c49.28-5.84,98.68-10.28,148.04-15.36c72.155-7.252,165.792-16.14,262.56,77.08
		c-22.847,51.648-48.42,84.88-117.08,210.68c-37.652,66.048-48.617,127.963-29.36,202.56c-35.44-7.88-67.84-24.48-101.16-38.2
		c14.88,36.84,31.8,73.4,38.12,113c-56.12-16.08-117.52-12.4-170.84,11.68c-78.085,36.505-195.075,109.625-254.36,131.48
		C559.138,1190.92,766.168,956.89,682.64,684.24z M969.88,1317.32c41.578-22.267,115.875-64.925,205.2-28.96
		c-1.88,50.72-12.32,100.68-17.2,151.2c0.52,7.68-8.28,9.52-13.44,12.84c-46.2,22.76-88.88,53.2-138.16,69.24
		c-44.56,14.52-91.88,11.32-138,10.88c102.98,105.113,89.815,98.088,140,278.64c-34.08,40.4-64.12,84.4-102.08,121.44
		c-180.818-88.808-105.492-315.423-247.76-486.08C761.57,1439.373,803.083,1408.492,969.88,1317.32z M288.36,2127.72
		c-41.56-50.88-92.96-93.56-151.2-124.04c116.152-60.745,143.507-107.26,300.24-302c27.44-33.68,54.96-68.56,91.68-92.72
		c45.08-31.64,100.6-45.56,155.12-47.24c21.165,52.175,28.113,104.633,73.16,253.88c18.92,59.84,61.12,111.68,116.12,142
		c-30.88,19.04-65.12,31.56-98.92,44.32c36.08,16.36,74.84,28.76,106.28,53.64c-53.28,29.44-94.88,78.68-114.68,136.24
		c-46.388,138.673-57.383,210.328-84.68,265.68C498.878,2449.715,465.715,2348.745,288.36,2127.72z M658.76,2560.04
		c68.6-79.76,77.535-139.073,103.76-227.6c35.705-118.77,41.852-147.717,69-184.44c20.4-28.68,49.4-50.04,80.32-66.24
		c35.84,39.32,65.92,83.48,98.92,125.16c-50.41,150.623-24.36,151.537-142.72,265.32c122.253,0.452,122.688-4.117,294.96,97.44
		c2.84,5.44,2.12,11.88,3.08,17.8c3.72,46.92,12.96,93.52,11.76,140.72C989.475,2793.798,878.297,2579.22,658.76,2560.04z
		 M1244.2,3335.4c-33.995,6.768-69.877,9.633-304.48-24.68c-93.54-13.07-160.755-17.135-255.6,11.88
		c42.878-131.982,21.94-193.31-4.92-466.68c-9.303-93.48,16.25-163.895,78.68-232.48c24.84,8.92,47.28,23.12,70.24,35.88
		c51.32,30.68,103.56,59.8,155.92,88.64c57.08,31.12,125.68,39.04,188.32,21.48c-8.16,35.4-24.08,68.2-38.4,101.4
		c36.72-15.28,73.52-31.8,113.04-38.4c-15.08,53.48-12.92,111.84,8.6,163.28c28.855,67.857,110.898,198,134.68,261.8
		C1349.92,3295.96,1299.6,3325.68,1244.2,3335.4z M1446.4,3347.2c-8.065-137.343-79.708-199.872-153.52-360.44
		c-22.16-49.08-23.04-106.24-5.36-156.84c53.16,2.68,105.72,12.28,158.52,18.64c26.68,55.72,65.56,106.4,80.16,167.28
		c9.56,39.68,6.64,80.76,6.16,121.2c98.565-97.815,97.515-91.635,279.16-139.92c40.16,33.88,83.68,63.84,120.84,101.16
		C1849.81,3277.345,1609.462,3207.035,1446.4,3347.2z M2405.68,3485.76c-30.172,42.225-61.81,64.55-247.88,207.4
		c-63.28,46.32-118.08,105-154.28,174.96c-62.662-127.517-152.84-175.56-260.72-266.96c-79.308-67.06-177.525-120.887-180.92-280.28
		c41.84-16.68,86.08-25.64,129.36-37.6c117.74-33.117,206.19-44.652,266.48-151.4c19.28,30.8,31.36,65.28,44.56,98.96
		c15.08-36.64,29.4-74.12,52.48-106.68c21.28,33.92,47.2,66,81.6,87.4c64.227,43.847,246.347,75.958,321.04,111.84
		C2455.12,3380.72,2440.12,3439.04,2405.68,3485.76z M2560.12,3346.76c-43.96-40-98.24-67.24-155.2-83.36
		c-206.82-59.595-266.915-64.662-322.92-169.08c23.588-24.415,122.975-98.337,125.48-99.96c61.96,22.16,130.56,29.92,185.48,68.68
		c30.04,20.64,54.04,48.36,79.36,74.28c1.433-155.837,9.883-136.78,97.76-295.88c52.72-4.84,105.28-15.08,158.4-13.92
		c17.92,53.36,16.92,113.56-8.4,164.4C2625.948,3177.03,2573.185,3211.485,2560.12,3346.76z M3336.6,2767.76
		c9.32,59-4.28,118.08-10.04,176.72c-16.338,150.302-46.313,241.567-4,376.56c-59.92-20.12-123.68-28.24-186.76-23.72
		c-269.3,19.46-376.92,76.648-512.72-50.76c75.958-171.853,189.218-250.958,146.28-413.76c35.36,8.32,68.44,23.8,101.48,38.56
		c-15-36.96-32.04-73.64-38.28-113.36c59.68,17.68,125.44,11.56,181.08-16.28c52.52-26.88,104.44-55.08,155.88-84
		c29-15.6,57.6-32.64,89.16-42.56C3297.4,2657.92,3328.4,2709.88,3336.6,2767.76z M2992.6,2709.68
		c-50.44,24.64-110.04,26.32-162.72,8c2.44-52.96,12.92-105.12,18.2-157.84c62.16-30.56,119.56-75.96,190.12-84.92
		c32.8-4.8,66-2.12,99-2c-81.015-81.955-94.385-87.498-140-279.88c34.84-39.44,63.52-84.2,101.84-120.48
		c32,16.88,62.04,39.04,82.88,69.04c46.188,63.215,68.53,229.873,106.28,321.84c14.52,34.72,35,66.64,59.12,95.4
		C3228.042,2564.623,3177.288,2617.05,2992.6,2709.68z M3545.84,2330c-59.667,73.33-125.067,109.76-224.96,113.36
		c-21.52-56.32-32.32-115.92-49.88-173.48c-24.688-83.085-31.13-155.055-138.8-223c31-18.52,65.04-30.72,98.48-43.88
		c-36.72-15.56-74.64-29.6-107.24-53.16c51.72-28,92.76-74.88,113.12-130.12c29.532-80.99,59.93-214.663,86.64-271.8
		c166.755,5.18,219.085,108.125,279.52,181.92c93.83,115.208,135.558,202.778,265.36,271.84
		C3746.125,2062.335,3710.88,2128.34,3545.84,2330z"/>
</g>
</svg>
