<?xml version="1.0" encoding="UTF-8"?>
<svg xmlns="http://www.w3.org/2000/svg" xmlns:xlink="http://www.w3.org/1999/xlink" width="128px" height="128px" viewBox="0 0 128 128" version="1.1">
<g id="surface1">
<path style=" stroke:none;fill-rule:nonzero;fill:rgb(0%,0%,0%);fill-opacity:1;" d="M 68.789062 43.199219 L 65.09375 47.082031 L 68.976562 50.652344 L 72.734375 46.832031 Z M 68.789062 43.199219 "/>
<path style=" stroke:none;fill-rule:nonzero;fill:rgb(0%,0%,0%);fill-opacity:1;" d="M 61.210938 45.328125 C 61.210938 45.328125 65.34375 58.355469 77.304688 47.519531 C 77.367188 47.582031 80.558594 51.777344 80.625 51.777344 C 75.988281 56.976562 61.835938 59.792969 61.210938 45.328125 Z M 61.210938 45.328125 "/>
<path style=" stroke:none;fill-rule:nonzero;fill:rgb(0%,0%,0%);fill-opacity:1;" d="M 50.1875 60.296875 L 47.308594 55.097656 C 62.046875 45.203125 70.019531 59.480469 59.394531 65.933594 L 62.839844 67.308594 C 66.953125 67.140625 66.359375 62.25 70.730469 58.292969 C 72.378906 56.308594 84.046875 53.699219 84.320312 70.378906 C 83.636719 85.515625 65.824219 84.46875 68.789062 70.378906 C 69.832031 75.816406 73.863281 76.035156 77.023438 74.589844 C 81.8125 72.351562 81.726562 68.609375 81.746094 67.09375 C 81.792969 63.371094 80 57.988281 75.363281 61.296875 C 72.984375 62.996094 72.878906 64.847656 72.417969 65.742188 C 71.960938 66.640625 70.507812 70.144531 64.277344 69.0625 C 70.09375 81.085938 60.464844 84.277344 59.519531 84.46875 C 57.078125 85.699219 42.210938 84.367188 43.800781 65.242188 C 45.074219 75.261719 50.109375 80.617188 58.140625 78.582031 C 64.222656 77.042969 64.195312 66.097656 54.824219 69.6875 L 52.695312 63.050781 C 52.601562 62.769531 55.710938 63.839844 58.894531 62.988281 C 61.476562 62.296875 63.613281 57.246094 56.828125 57.226562 C 53.851562 57.21875 52.402344 59.273438 50.1875 60.296875 Z M 50.1875 60.296875 "/>
<path style=" stroke:none;fill-rule:nonzero;fill:rgb(0%,0%,0%);fill-opacity:1;" d="M 120.253906 58.945312 C 115.054688 52.488281 113.453125 48.480469 107.332031 47.863281 C 108.097656 46.839844 109.035156 45.972656 109.953125 45.089844 C 108.535156 45.09375 107.101562 45.113281 105.707031 44.820312 C 108.828125 40.84375 108.28125 37.847656 107.96875 34.699219 C 107 25.214844 106.488281 25.589844 109.402344 18.777344 C 103.953125 20.996094 103.261719 21.179688 97.15625 20.339844 C 91.082031 19.527344 87.511719 18.558594 83.199219 22.023438 C 83.007812 20.765625 83.070312 19.492188 83.085938 18.226562 C 82.070312 19.214844 81.09375 20.273438 79.875 21.027344 C 79.539062 17.800781 78.273438 15.515625 75.773438 13.449219 C 69.917969 8.601562 68.898438 8.101562 67.390625 6.335938 C 65.414062 4.050781 64.664062 1.25 64.109375 0 L 64.054688 0 C 63.292969 2.058594 62.425781 4.132812 61.019531 5.851562 C 58.480469 8.996094 51.878906 12.527344 49.675781 15.757812 C 48.617188 17.242188 48.0625 19.027344 47.859375 20.828125 C 46.832031 20.074219 45.988281 19.121094 45.097656 18.21875 C 45.09375 19.644531 45.113281 21.078125 44.816406 22.480469 C 40.957031 19.265625 37.414062 19.929688 34.824219 20.183594 C 25.207031 21.167969 25.707031 21.675781 18.785156 18.761719 C 20.359375 22.707031 21.289062 24.425781 20.542969 29.566406 C 19.375 37.667969 18.667969 40.660156 22.019531 44.972656 C 20.765625 45.152344 19.492188 45.09375 18.230469 45.082031 C 19.230469 46.089844 20.269531 47.082031 21.035156 48.289062 C 17.140625 48.640625 14.992188 50.445312 12.886719 53.078125 C 6.558594 60.90625 6.59375 61.609375 0 64.046875 L 0 64.082031 C 3.910156 65.679688 5.921875 66.527344 8.617188 70.109375 C 13.605469 76.699219 14.328125 77.441406 15.433594 78.253906 C 16.984375 79.449219 18.902344 80.105469 20.84375 80.300781 C 20.070312 81.316406 19.132812 82.183594 18.226562 83.070312 C 19.648438 83.066406 21.082031 83.050781 22.480469 83.351562 C 19.253906 87.203125 19.933594 90.792969 20.195312 93.460938 C 21.160156 102.785156 21.6875 102.628906 18.761719 109.382812 C 25.257812 106.707031 25.25 107.085938 34.414062 108.25 C 37.464844 108.605469 40.90625 109.398438 44.972656 106.136719 C 45.148438 107.398438 45.105469 108.675781 45.078125 109.945312 C 46.074219 108.929688 47.082031 107.898438 48.292969 107.132812 C 48.597656 110.199219 49.800781 112.558594 52.285156 114.621094 C 61.125 121.929688 61.238281 120.988281 64.007812 128 L 64.128906 128 C 65.402344 125.042969 66.152344 122.613281 69.703125 119.867188 C 76.203125 114.738281 79.699219 113.226562 80.300781 107.324219 C 81.316406 108.097656 82.191406 109.023438 83.070312 109.945312 C 83.074219 108.519531 83.046875 107.082031 83.355469 105.6875 C 87.480469 109.117188 91.148438 108.15625 94.308594 107.882812 C 102.515625 107.140625 102.375 106.34375 109.390625 109.40625 C 108.257812 106.574219 106.960938 104.183594 107.46875 99.839844 C 108.480469 91.375 109.886719 87.835938 106.136719 83.199219 C 107.394531 83.007812 108.667969 83.066406 109.933594 83.082031 C 108.9375 82.074219 107.898438 81.085938 107.132812 79.878906 C 109.929688 79.5625 112.261719 78.605469 114.34375 76.195312 C 121.449219 67.929688 120.292969 67.148438 128 64.164062 L 128 64.035156 C 125.726562 63.007812 122.949219 62.257812 120.253906 58.945312 Z M 107.097656 46.242188 C 104.847656 48.757812 104.578125 50.757812 102.960938 56.199219 C 102.476562 57.738281 101.945312 60.09375 98.980469 61.542969 C 97.847656 60.292969 96.914062 58.882812 95.835938 57.589844 C 95.964844 56.972656 96.191406 56.382812 96.351562 55.773438 C 97.492188 51.773438 97.722656 51.679688 100.402344 49.046875 C 95.789062 49.050781 96.015625 48.8125 90.914062 45.914062 C 90.777344 44.226562 90.445312 42.550781 90.480469 40.851562 C 96.628906 38.789062 100.09375 45.6875 107.097656 46.242188 Z M 89.734375 89.703125 C 87.273438 88.929688 85.695312 89.351562 82.964844 89.625 C 83.902344 87.882812 83.910156 85.746094 83.144531 83.941406 C 83.476562 83.605469 83.800781 83.269531 84.128906 82.933594 C 85.964844 83.671875 88.113281 83.589844 89.839844 82.597656 C 89.550781 85.335938 88.960938 86.929688 89.734375 89.703125 Z M 63.511719 91.601562 C 63.984375 91.59375 64.453125 91.597656 64.921875 91.582031 C 65.800781 93.414062 67.015625 94.742188 69.195312 95.386719 C 67.082031 97.105469 65.449219 97.886719 64.105469 100.335938 C 62.859375 97.914062 61.132812 96.984375 59.382812 95.492188 C 61.273438 94.921875 62.792969 93.421875 63.511719 91.601562 Z M 50.230469 97.589844 C 50.015625 94.917969 48.871094 93.535156 47.355469 90.625 C 46.535156 89.035156 45.425781 87.617188 46.214844 85 C 50.65625 88.832031 56.367188 91.15625 62.222656 91.535156 C 61.847656 92.234375 61.382812 92.902344 60.757812 93.402344 C 58.511719 95.265625 53.398438 94.957031 50.230469 97.589844 Z M 66.238281 91.515625 C 72.089844 91.070312 77.773438 88.6875 82.175781 84.804688 C 83.773438 89.457031 78.449219 92.457031 77.980469 97.546875 C 75.246094 95.542969 74.457031 95.800781 71.300781 94.765625 C 69.4375 94.144531 67.605469 94.019531 66.238281 91.515625 Z M 81.933594 82.449219 C 75.019531 89.207031 64.949219 91.371094 56.007812 88.398438 C 45.847656 85.046875 38.664062 75.492188 38.472656 64.640625 C 38.121094 51.191406 48.414062 39.957031 61.253906 38.621094 C 66.632812 38.019531 72.199219 39.152344 76.878906 41.886719 C 91.617188 50.351562 94.105469 70.671875 81.933594 82.449219 Z M 38.4375 38.46875 C 41.152344 39.265625 42.648438 38.769531 45.199219 38.542969 C 43.84375 41.160156 44.710938 43.300781 45.015625 44.257812 C 44.59375 44.621094 44.230469 45.039062 43.84375 45.4375 C 41.792969 44.535156 40.351562 44.503906 38.328125 45.5625 C 38.605469 43.214844 39.191406 40.789062 38.4375 38.46875 Z M 38.929688 46.613281 C 40.765625 45.679688 41.714844 45.917969 43.003906 46.390625 C 39.273438 50.816406 36.996094 56.445312 36.632812 62.222656 C 32.214844 60.039062 33.941406 54.402344 30.582031 50.226562 C 33.253906 50.035156 34.507812 48.914062 38.929688 46.613281 Z M 36.566406 63.519531 C 36.5625 63.984375 36.566406 64.453125 36.582031 64.917969 C 34.671875 65.835938 33.464844 67.023438 32.773438 69.191406 C 31.367188 67.433594 30.15625 65.390625 28.125 64.277344 C 28.023438 64.246094 27.757812 64.050781 28.011719 63.996094 C 30.027344 62.984375 31.304688 61.070312 32.671875 59.359375 C 33.226562 61.261719 34.742188 62.789062 36.566406 63.519531 Z M 34.675781 67.964844 C 35.164062 67.214844 35.890625 66.65625 36.664062 66.230469 C 37.058594 72.09375 39.507812 77.75 43.34375 82.1875 C 42.046875 82.609375 40.59375 82.609375 39.355469 82.003906 C 35.210938 79.886719 33.53125 78.234375 30.601562 77.976562 C 31.277344 77.160156 31.835938 76.246094 32.199219 75.246094 C 33.011719 73.042969 33.757812 69.285156 34.675781 67.964844 Z M 38.542969 82.957031 C 40.273438 83.902344 42.417969 83.910156 44.214844 83.140625 C 44.5625 83.457031 44.875 83.808594 45.230469 84.117188 C 44.496094 85.957031 44.582031 88.097656 45.558594 89.835938 C 42.792969 89.527344 41.097656 88.972656 38.464844 89.726562 C 39.257812 87.207031 38.789062 85.5625 38.542969 82.957031 Z M 64.949219 36.582031 C 64.378906 36.5625 63.808594 36.558594 63.238281 36.582031 C 62.273438 34.433594 60.859375 33.390625 58.972656 32.773438 C 61.445312 30.832031 62.800781 30.113281 64.058594 27.832031 C 65.210938 30 66.410156 30.761719 68.804688 32.671875 C 66.691406 33.328125 65.742188 34.511719 64.949219 36.582031 Z M 73.730469 32.566406 C 75.242188 32.183594 76.734375 31.59375 77.933594 30.578125 C 78.359375 35.671875 83.363281 38.84375 81.953125 43.140625 C 77.554688 39.414062 71.984375 37.050781 66.222656 36.660156 C 67.316406 34.054688 68.277344 33.964844 73.730469 32.566406 Z M 61.933594 36.660156 C 56.078125 37.066406 50.402344 39.488281 45.988281 43.347656 C 44.945312 40.277344 46.527344 38.820312 49.085938 34.125 C 49.691406 33.035156 50.039062 31.828125 50.207031 30.601562 C 53.789062 33.8125 59.652344 32.476562 61.933594 36.660156 Z M 89.621094 45.203125 C 87.878906 44.265625 85.742188 44.253906 83.9375 45.023438 C 83.613281 44.683594 83.273438 44.359375 82.933594 44.035156 C 83.671875 42.199219 83.589844 40.046875 82.597656 38.320312 C 85.546875 38.679688 87.207031 39.171875 89.703125 38.433594 C 88.910156 40.957031 89.375 42.59375 89.621094 45.203125 Z M 97.5625 50.1875 C 95.765625 52.367188 95.667969 54.039062 94.738281 56.953125 C 94.050781 59.054688 93.976562 60.515625 91.511719 61.929688 C 91.078125 56.074219 88.6875 50.386719 84.800781 45.984375 C 86.15625 45.539062 87.675781 45.558594 88.953125 46.226562 C 93.410156 48.589844 94.800781 49.941406 97.5625 50.1875 Z M 85.007812 81.945312 C 88.832031 77.5 91.164062 71.796875 91.535156 65.945312 C 95.90625 68.070312 94.316406 73.996094 97.585938 77.929688 C 94.738281 78.214844 93.539062 79.3125 90.742188 80.75 C 89.144531 81.554688 87.644531 82.777344 85.007812 81.945312 Z M 91.59375 64.640625 C 91.605469 64.171875 91.597656 63.707031 91.585938 63.238281 C 93.496094 62.355469 94.738281 61.070312 95.386719 58.984375 C 97.109375 61.023438 97.722656 62.582031 100.328125 64.058594 C 98.066406 65.25 97.214844 66.675781 95.496094 68.792969 C 94.925781 66.890625 93.414062 65.378906 91.59375 64.640625 Z M 88.589844 21.394531 C 90.113281 21.136719 91.648438 21.410156 93.160156 21.589844 C 100.292969 22.484375 102.179688 23.058594 106.269531 21.847656 C 104.953125 25.949219 105.515625 27.925781 106.359375 35.96875 C 106.65625 38.824219 106.523438 41.53125 103.863281 44.226562 C 98.660156 41.898438 95.6875 38.144531 90.652344 39.539062 C 90.910156 38.410156 91.425781 37.367188 91.878906 36.304688 C 90.691406 36.769531 89.53125 37.335938 88.261719 37.523438 C 88.800781 35.640625 88.640625 33.570312 87.773438 31.8125 C 85.71875 27.714844 84.414062 25.902344 83.675781 23.917969 C 85.03125 22.640625 86.726562 21.65625 88.589844 21.394531 Z M 81.882812 21.050781 C 82.328125 28.066406 89.003906 31.671875 86.972656 37.605469 C 85.273438 37.535156 83.601562 37.195312 81.914062 37.023438 C 81.046875 35.277344 79.847656 33.664062 79.351562 31.753906 C 79.019531 30.457031 79.117188 29.105469 79.132812 27.785156 C 75.839844 30.914062 76.417969 30.578125 70.199219 32.265625 C 68.921875 31.164062 67.507812 30.214844 66.324219 29.003906 C 67.113281 27.375 68.515625 26.039062 70.242188 25.460938 C 73.648438 24.347656 77.269531 23.695312 79.214844 22.765625 C 80.183594 22.335938 81.070312 21.730469 81.882812 21.050781 Z M 52.058594 15.589844 C 54.527344 13.183594 60.152344 9.695312 62.367188 6.9375 C 63.019531 6.152344 63.5625 5.28125 64.050781 4.386719 C 66.054688 8.320312 68.210938 9.496094 73.070312 13.46875 C 75.324219 15.347656 78.011719 17.019531 78.191406 21.894531 C 76.792969 22.457031 75.304688 22.738281 73.863281 23.15625 C 70.378906 24.167969 67.523438 24.449219 65.523438 27.929688 C 64.882812 26.96875 64.539062 25.859375 64.101562 24.804688 C 63.582031 25.96875 63.140625 27.175781 62.402344 28.222656 C 59.929688 23.644531 54.902344 24.105469 49.550781 21.847656 C 49.554688 19.550781 50.40625 17.21875 52.058594 15.589844 Z M 46.242188 21.074219 C 47.082031 21.796875 47.992188 22.449219 49.007812 22.910156 C 50.765625 23.757812 52.285156 23.941406 57.484375 25.609375 C 59.265625 26.171875 60.738281 27.507812 61.546875 29.179688 C 60.300781 30.324219 58.875 31.25 57.578125 32.335938 C 57.085938 32.222656 56.609375 32.046875 56.121094 31.914062 C 52.023438 30.679688 52.085938 30.867188 49.054688 27.765625 C 49.011719 32.40625 48.878906 32.050781 45.914062 37.25 C 44.226562 37.386719 42.554688 37.722656 40.859375 37.6875 C 39.648438 34.109375 41.308594 32.085938 42.984375 29.050781 C 44.421875 26.421875 45.945312 24.625 46.242188 21.074219 Z M 21.84375 21.894531 C 25.59375 23.09375 27.949219 22.667969 31.089844 22.3125 C 32.667969 22.128906 34.246094 21.984375 35.828125 21.824219 C 38.136719 21.589844 41.132812 21.304688 44.230469 24.289062 C 43.496094 25.941406 42.679688 27.003906 40.484375 31.03125 C 39.277344 33.144531 38.925781 35.125 39.542969 37.511719 C 38.410156 37.261719 37.371094 36.730469 36.304688 36.289062 C 36.78125 37.46875 37.324219 38.640625 37.527344 39.90625 C 35.730469 39.390625 33.765625 39.507812 32.058594 40.28125 C 29.558594 41.449219 25.816406 43.789062 23.917969 44.488281 C 17.890625 38.109375 24.515625 30.621094 21.84375 21.894531 Z M 31.035156 42.152344 C 32.367188 41.441406 34.746094 40.078125 37.601562 41.226562 C 37.542969 42.851562 37.207031 44.449219 37.050781 46.066406 C 37.070312 46.3125 36.789062 46.371094 36.621094 46.476562 C 35.144531 47.207031 33.777344 48.179688 32.199219 48.691406 C 30.773438 49.15625 29.261719 49.054688 27.785156 49.039062 C 31.082031 52.402344 30.660156 52.179688 32.265625 57.957031 C 31.175781 59.25 30.214844 60.65625 29 61.84375 C 23.210938 59 25.621094 51.75 21.070312 46.289062 C 24.371094 46.058594 25.699219 45.070312 31.035156 42.152344 Z M 9.226562 68.085938 C 7.898438 66.457031 6.253906 65.09375 4.390625 64.117188 C 8.105469 62.175781 8.980469 60.683594 13.996094 54.453125 C 14.875 53.375 15.753906 52.261719 16.929688 51.488281 C 18.375 50.472656 20.148438 50.027344 21.894531 49.976562 C 22.570312 51.644531 22.792969 53.324219 24.234375 58.097656 C 24.839844 60.015625 26.191406 61.671875 27.953125 62.644531 C 26.964844 63.253906 25.867188 63.652344 24.785156 64.0625 C 25.941406 64.585938 27.179688 64.980469 28.1875 65.777344 C 26.480469 66.71875 25.152344 68.296875 24.515625 70.136719 C 23.03125 74.574219 22.679688 76.867188 21.808594 78.640625 C 15.964844 78.390625 14.902344 75.160156 9.226562 68.085938 Z M 21.082031 81.921875 C 23.277344 79.367188 23.5625 77.472656 24.402344 74.636719 C 25.542969 70.835938 25.738281 69.910156 26.609375 68.734375 C 27.261719 67.816406 28.1875 67.132812 29.179688 66.617188 C 30.324219 67.875 31.289062 69.289062 32.34375 70.621094 C 30.730469 75.441406 31.566406 75.46875 27.777344 79.113281 C 31.6875 79.125 31.703125 78.980469 37.214844 82.230469 C 37.308594 82.402344 37.285156 82.609375 37.316406 82.800781 C 37.433594 84.300781 37.730469 85.792969 37.691406 87.300781 C 31.664062 89.402344 28.105469 82.535156 21.082031 81.921875 Z M 39.8125 106.734375 C 38.726562 106.949219 37.578125 107.042969 30.070312 105.941406 C 27.078125 105.523438 24.925781 105.394531 21.890625 106.324219 C 23.265625 102.101562 22.59375 100.136719 21.734375 91.390625 C 21.4375 88.398438 22.253906 86.144531 24.253906 83.949219 C 25.046875 84.234375 25.765625 84.691406 26.5 85.097656 C 28.140625 86.078125 29.8125 87.011719 31.488281 87.933594 C 33.316406 88.929688 35.511719 89.183594 37.515625 88.621094 C 37.253906 89.753906 36.746094 90.804688 36.285156 91.867188 C 37.460938 91.378906 38.640625 90.847656 39.902344 90.636719 C 39.421875 92.347656 39.492188 94.21875 40.179688 95.863281 C 41.101562 98.035156 43.726562 102.199219 44.488281 104.242188 C 43.199219 105.472656 41.585938 106.421875 39.8125 106.734375 Z M 46.285156 107.109375 C 46.027344 102.714844 43.734375 100.714844 41.371094 95.578125 C 40.664062 94.003906 40.636719 92.175781 41.199219 90.558594 C 42.902344 90.644531 44.582031 90.949219 46.273438 91.152344 C 47.128906 92.9375 48.371094 94.558594 48.839844 96.507812 C 49.144531 97.777344 49.050781 99.089844 49.035156 100.386719 C 52.191406 97.253906 52.15625 97.453125 57.96875 95.90625 C 59.253906 96.992188 60.644531 97.949219 61.835938 99.144531 C 59.195312 104.875 51.503906 102.625 46.285156 107.109375 Z M 76.980469 111.542969 C 76.015625 112.894531 75.003906 113.609375 69.050781 118.179688 C 67.023438 119.664062 65.269531 121.542969 64.113281 123.78125 C 62.109375 119.699219 59.222656 118.160156 55.769531 115.238281 C 53.230469 113.089844 50.089844 111.367188 49.980469 106.269531 C 51.320312 105.734375 52.734375 105.449219 54.121094 105.066406 C 57.886719 104.003906 60.71875 103.636719 62.648438 100.21875 C 63.265625 101.207031 63.652344 102.308594 64.074219 103.386719 C 64.554688 102.214844 65.015625 101.015625 65.753906 99.972656 C 66.433594 101.058594 67.261719 102.085938 68.363281 102.769531 C 70.417969 104.171875 76.246094 105.199219 78.636719 106.347656 C 78.5625 108.183594 78.082031 110.050781 76.980469 111.542969 Z M 81.925781 107.097656 C 80.515625 105.816406 78.78125 104.945312 76.957031 104.429688 C 70.339844 102.523438 68.417969 102.359375 66.625 99.019531 C 67.378906 98.238281 70.558594 95.871094 70.640625 95.820312 C 72.621094 96.527344 74.816406 96.777344 76.574219 98.015625 C 77.535156 98.679688 78.304688 99.566406 79.113281 100.394531 C 79.160156 95.40625 79.429688 96.015625 82.242188 90.925781 C 83.929688 90.769531 85.613281 90.445312 87.3125 90.480469 C 87.886719 92.1875 87.851562 94.113281 87.042969 95.742188 C 84.03125 101.664062 82.34375 102.765625 81.925781 107.097656 Z M 106.769531 88.566406 C 107.070312 90.457031 106.632812 92.347656 106.449219 94.222656 C 105.925781 99.03125 104.96875 101.953125 106.320312 106.273438 C 104.40625 105.628906 102.363281 105.371094 100.34375 105.515625 C 91.726562 106.136719 88.285156 107.96875 83.9375 103.890625 C 86.371094 98.390625 89.992188 95.859375 88.621094 90.648438 C 89.75 90.914062 90.808594 91.410156 91.867188 91.882812 C 91.386719 90.699219 90.839844 89.527344 90.640625 88.257812 C 92.550781 88.820312 94.65625 88.625 96.4375 87.734375 C 98.117188 86.875 99.777344 85.972656 101.425781 85.046875 C 102.351562 84.546875 103.269531 84.003906 104.277344 83.683594 C 105.515625 85.054688 106.507812 86.714844 106.769531 88.566406 Z M 95.761719 86.710938 C 94.148438 87.5 92.242188 87.550781 90.554688 86.964844 C 90.632812 85.269531 90.96875 83.601562 91.136719 81.914062 C 93.128906 80.9375 94.964844 79.484375 97.222656 79.199219 C 98.273438 79.042969 99.335938 79.128906 100.390625 79.132812 C 97.796875 76.511719 97.371094 76.332031 95.910156 70.175781 C 97.023438 68.914062 97.941406 67.484375 99.167969 66.320312 C 100.191406 66.863281 101.15625 67.570312 101.820312 68.53125 C 103.300781 70.554688 104.015625 75.886719 105.222656 78.832031 C 105.6875 79.941406 106.34375 80.960938 107.113281 81.882812 C 103.296875 82.066406 101.671875 83.746094 95.761719 86.710938 Z M 113.46875 74.558594 C 111.558594 76.90625 109.464844 78.074219 106.269531 78.1875 C 105.578125 76.386719 105.234375 74.476562 104.671875 72.636719 C 103.882812 69.976562 103.675781 67.675781 100.230469 65.5 C 101.222656 64.90625 102.3125 64.515625 103.382812 64.097656 C 102.207031 63.597656 100.992188 63.148438 99.949219 62.394531 C 101.605469 61.5 102.917969 60 103.570312 58.230469 C 104.515625 55.640625 105.488281 51.363281 106.34375 49.535156 C 111.679688 49.699219 113.351562 52.992188 115.285156 55.355469 C 118.289062 59.042969 119.625 61.84375 123.777344 64.054688 C 119.875 65.996094 118.75 68.105469 113.46875 74.558594 Z M 113.46875 74.558594 "/>
</g>
</svg>
